<mxfile host="app.diagrams.net" modified="2023-10-01T19:06:36.630Z" agent="Mozilla/5.0 (Macintosh; Intel Mac OS X 10_15_7) AppleWebKit/537.36 (KHTML, like Gecko) Chrome/117.0.0.0 Safari/537.36" etag="_k-K2K8fiyq_q7BrZFv0" version="21.6.1" type="device">
  <diagram name="Page-1" id="s6hLNHHCz-futI14jcWa">
    <mxGraphModel dx="806" dy="581" grid="1" gridSize="10" guides="1" tooltips="1" connect="1" arrows="1" fold="1" page="1" pageScale="1" pageWidth="827" pageHeight="1169" math="0" shadow="0">
      <root>
        <mxCell id="0" />
        <mxCell id="1" parent="0" />
        <mxCell id="kFjAU9ac0yqUrMHddfq5-9" style="edgeStyle=orthogonalEdgeStyle;rounded=0;orthogonalLoop=1;jettySize=auto;html=1;exitX=1;exitY=0.25;exitDx=0;exitDy=0;entryX=0;entryY=0.25;entryDx=0;entryDy=0;" edge="1" parent="1" source="kFjAU9ac0yqUrMHddfq5-1" target="kFjAU9ac0yqUrMHddfq5-2">
          <mxGeometry relative="1" as="geometry" />
        </mxCell>
        <mxCell id="kFjAU9ac0yqUrMHddfq5-1" value="&lt;font style=&quot;font-size: 22px;&quot;&gt;11&lt;/font&gt;" style="rounded=0;whiteSpace=wrap;html=1;" vertex="1" parent="1">
          <mxGeometry x="150" y="150" width="80" height="40" as="geometry" />
        </mxCell>
        <mxCell id="kFjAU9ac0yqUrMHddfq5-10" style="edgeStyle=orthogonalEdgeStyle;rounded=0;orthogonalLoop=1;jettySize=auto;html=1;exitX=0;exitY=0.75;exitDx=0;exitDy=0;entryX=1;entryY=0.75;entryDx=0;entryDy=0;" edge="1" parent="1" source="kFjAU9ac0yqUrMHddfq5-2" target="kFjAU9ac0yqUrMHddfq5-1">
          <mxGeometry relative="1" as="geometry" />
        </mxCell>
        <mxCell id="kFjAU9ac0yqUrMHddfq5-11" style="edgeStyle=orthogonalEdgeStyle;rounded=0;orthogonalLoop=1;jettySize=auto;html=1;exitX=0.75;exitY=1;exitDx=0;exitDy=0;entryX=0.75;entryY=0;entryDx=0;entryDy=0;" edge="1" parent="1" source="kFjAU9ac0yqUrMHddfq5-2" target="kFjAU9ac0yqUrMHddfq5-3">
          <mxGeometry relative="1" as="geometry" />
        </mxCell>
        <mxCell id="kFjAU9ac0yqUrMHddfq5-2" value="&lt;font style=&quot;font-size: 22px;&quot;&gt;10&lt;/font&gt;" style="rounded=0;whiteSpace=wrap;html=1;" vertex="1" parent="1">
          <mxGeometry x="430" y="150" width="80" height="40" as="geometry" />
        </mxCell>
        <mxCell id="kFjAU9ac0yqUrMHddfq5-12" style="edgeStyle=orthogonalEdgeStyle;rounded=0;orthogonalLoop=1;jettySize=auto;html=1;exitX=0.25;exitY=0;exitDx=0;exitDy=0;entryX=0.25;entryY=1;entryDx=0;entryDy=0;" edge="1" parent="1" source="kFjAU9ac0yqUrMHddfq5-3" target="kFjAU9ac0yqUrMHddfq5-2">
          <mxGeometry relative="1" as="geometry" />
        </mxCell>
        <mxCell id="kFjAU9ac0yqUrMHddfq5-13" style="edgeStyle=orthogonalEdgeStyle;rounded=0;orthogonalLoop=1;jettySize=auto;html=1;exitX=0;exitY=0.25;exitDx=0;exitDy=0;entryX=1;entryY=0.25;entryDx=0;entryDy=0;" edge="1" parent="1" source="kFjAU9ac0yqUrMHddfq5-3" target="kFjAU9ac0yqUrMHddfq5-4">
          <mxGeometry relative="1" as="geometry" />
        </mxCell>
        <mxCell id="kFjAU9ac0yqUrMHddfq5-3" value="&lt;font style=&quot;font-size: 22px;&quot;&gt;01&lt;/font&gt;" style="rounded=0;whiteSpace=wrap;html=1;" vertex="1" parent="1">
          <mxGeometry x="430" y="280" width="80" height="40" as="geometry" />
        </mxCell>
        <mxCell id="kFjAU9ac0yqUrMHddfq5-14" style="edgeStyle=orthogonalEdgeStyle;rounded=0;orthogonalLoop=1;jettySize=auto;html=1;exitX=1;exitY=0.75;exitDx=0;exitDy=0;entryX=0;entryY=0.75;entryDx=0;entryDy=0;" edge="1" parent="1" source="kFjAU9ac0yqUrMHddfq5-4" target="kFjAU9ac0yqUrMHddfq5-3">
          <mxGeometry relative="1" as="geometry" />
        </mxCell>
        <mxCell id="kFjAU9ac0yqUrMHddfq5-4" value="&lt;font style=&quot;font-size: 22px;&quot;&gt;00&lt;/font&gt;" style="rounded=0;whiteSpace=wrap;html=1;" vertex="1" parent="1">
          <mxGeometry x="150" y="280" width="80" height="40" as="geometry" />
        </mxCell>
        <mxCell id="kFjAU9ac0yqUrMHddfq5-5" style="edgeStyle=orthogonalEdgeStyle;orthogonalLoop=1;jettySize=auto;html=1;entryX=0.25;entryY=1;entryDx=0;entryDy=0;rounded=0;" edge="1" parent="1" source="kFjAU9ac0yqUrMHddfq5-1" target="kFjAU9ac0yqUrMHddfq5-1">
          <mxGeometry relative="1" as="geometry">
            <Array as="points">
              <mxPoint x="190" y="130" />
              <mxPoint x="120" y="130" />
              <mxPoint x="120" y="210" />
              <mxPoint x="170" y="210" />
            </Array>
          </mxGeometry>
        </mxCell>
        <mxCell id="kFjAU9ac0yqUrMHddfq5-16" style="edgeStyle=orthogonalEdgeStyle;rounded=0;orthogonalLoop=1;jettySize=auto;html=1;exitX=0.5;exitY=0;exitDx=0;exitDy=0;entryX=0.35;entryY=1.05;entryDx=0;entryDy=0;entryPerimeter=0;" edge="1" parent="1" source="kFjAU9ac0yqUrMHddfq5-4" target="kFjAU9ac0yqUrMHddfq5-4">
          <mxGeometry relative="1" as="geometry">
            <Array as="points">
              <mxPoint x="190" y="260" />
              <mxPoint x="120" y="260" />
              <mxPoint x="120" y="340" />
              <mxPoint x="178" y="340" />
            </Array>
          </mxGeometry>
        </mxCell>
        <mxCell id="kFjAU9ac0yqUrMHddfq5-17" value="g = b" style="text;html=1;strokeColor=none;fillColor=none;align=center;verticalAlign=middle;whiteSpace=wrap;rounded=0;" vertex="1" parent="1">
          <mxGeometry x="70" y="155" width="60" height="30" as="geometry" />
        </mxCell>
        <mxCell id="kFjAU9ac0yqUrMHddfq5-19" value="g != b &amp;amp; l = b" style="text;html=1;strokeColor=none;fillColor=none;align=center;verticalAlign=middle;whiteSpace=wrap;rounded=0;" vertex="1" parent="1">
          <mxGeometry x="290" y="125" width="90" height="30" as="geometry" />
        </mxCell>
        <mxCell id="kFjAU9ac0yqUrMHddfq5-20" value="g = b" style="text;html=1;strokeColor=none;fillColor=none;align=center;verticalAlign=middle;whiteSpace=wrap;rounded=0;" vertex="1" parent="1">
          <mxGeometry x="280" y="185" width="90" height="30" as="geometry" />
        </mxCell>
        <mxCell id="kFjAU9ac0yqUrMHddfq5-21" value="l = b" style="text;html=1;strokeColor=none;fillColor=none;align=center;verticalAlign=middle;whiteSpace=wrap;rounded=0;" vertex="1" parent="1">
          <mxGeometry x="280" y="260" width="90" height="30" as="geometry" />
        </mxCell>
        <mxCell id="kFjAU9ac0yqUrMHddfq5-22" value="l != b &amp;amp; g = b" style="text;html=1;strokeColor=none;fillColor=none;align=center;verticalAlign=middle;whiteSpace=wrap;rounded=0;" vertex="1" parent="1">
          <mxGeometry x="280" y="310" width="90" height="30" as="geometry" />
        </mxCell>
        <mxCell id="kFjAU9ac0yqUrMHddfq5-23" value="l = b" style="text;html=1;strokeColor=none;fillColor=none;align=center;verticalAlign=middle;whiteSpace=wrap;rounded=0;" vertex="1" parent="1">
          <mxGeometry x="60" y="285" width="60" height="30" as="geometry" />
        </mxCell>
        <mxCell id="kFjAU9ac0yqUrMHddfq5-24" value="l != b &amp;amp; g = b" style="text;html=1;strokeColor=none;fillColor=none;align=center;verticalAlign=middle;whiteSpace=wrap;rounded=0;" vertex="1" parent="1">
          <mxGeometry x="360" y="220" width="90" height="30" as="geometry" />
        </mxCell>
        <mxCell id="kFjAU9ac0yqUrMHddfq5-25" value="g != b &amp;amp; l = b" style="text;html=1;strokeColor=none;fillColor=none;align=center;verticalAlign=middle;whiteSpace=wrap;rounded=0;" vertex="1" parent="1">
          <mxGeometry x="490" y="220" width="90" height="30" as="geometry" />
        </mxCell>
      </root>
    </mxGraphModel>
  </diagram>
</mxfile>
